<svg id="Capa_1" enable-background="new 0 0 512 512" height="512" viewBox="0 0 512 512" width="512" xmlns="http://www.w3.org/2000/svg"><g><path d="m256 189.971c-3.839 0-7.678-1.464-10.606-4.394l-80.237-80.237c-24.066-24.066-24.066-63.224 0-87.291 24.067-24.066 63.226-24.066 87.291 0l3.552 3.554 3.553-3.553c24.065-24.066 63.224-24.066 87.291 0 24.066 24.067 24.066 63.225 0 87.291l-80.237 80.237c-2.929 2.929-6.768 4.393-10.607 4.393z" fill="#ff8659"/><path d="m346.844 18.049c-24.066-24.065-63.225-24.066-87.291 0l-3.553 3.554v168.369c3.839 0 7.678-1.464 10.606-4.394l80.237-80.237c24.067-24.067 24.067-63.225.001-87.292z" fill="#ff405c"/><g><g><path d="m496 512h-240v-35c0-52.467 42.533-95 95-95h65c52.467 0 95 42.533 95 95v20c0 8.284-6.716 15-15 15z" fill="#acceff"/><path d="m416 382h-32.5v130h112.5c8.284 0 15-6.716 15-15v-20c0-52.383-42.617-95-95-95z" fill="#989dec"/></g><g><path d="m478.5 312h-190c-8.284 0-15-6.716-15-15v-15c0-38.66 31.34-70 70-70h80c38.66 0 70 31.34 70 70v15c0 8.284-6.716 15-15 15z" fill="#f9f9f9"/><g><path d="m423.5 212h-40v100h95c8.284 0 15-6.716 15-15v-15c0-38.66-31.34-70-70-70z" fill="#e2dff4"/></g><path d="m383.5 442c-19.33 0-35-15.67-35-35v-63.093h70v63.093c0 19.33-15.67 35-35 35z" fill="#ffbca7"/><g><g><path d="m383.5 343.907v98.093c19.33 0 35-15.67 35-35v-63.093z" fill="#dd9080"/></g></g><path d="m383.5 382c-41.355 0-75-33.645-75-75v-50c0-41.355 33.645-75 75-75s75 33.645 75 75v50c0 41.355-33.645 75-75 75z" fill="#ffddce"/><g><path d="m383.5 182v200c41.355 0 75-33.645 75-75v-50c0-41.355-33.645-75-75-75z" fill="#ffbca7"/></g></g></g><g><g><g><path d="m256 512h-240c-8.284 0-15-6.716-15-15v-20c0-52.467 42.533-95 95-95h65c52.467 0 95 42.533 95 95z" fill="#ff8659"/><path d="m161 382h-32.5v130h127.5v-35c0-52.467-42.533-95-95-95z" fill="#ff405c"/></g><g><path d="m128.5 442c-19.33 0-35-15.67-35-35v-63.093h70v63.093c0 19.33-15.67 35-35 35z" fill="#ffbca7"/><g><g><path d="m128.5 343.907v98.093c19.33 0 35-15.67 35-35v-63.093z" fill="#dd9080"/></g></g></g></g><path d="m177.895 220.634-124.395 66.366v20c0 41.355 33.645 75 75 75s75-33.645 75-75v-30c0-22.448-9.927-42.609-25.605-56.366z" fill="#ffddce"/><g><path d="m177.895 220.634-49.395 26.353v135.013c41.355 0 75-33.645 75-75v-30c0-22.448-9.927-42.609-25.605-56.366z" fill="#ffbca7"/></g><path d="m72.219 263.867c-.446 0-.895-.04-1.342-.121-20.209-3.675-34.877-21.232-34.877-41.746 0-23.435 19.065-42.5 42.5-42.5 22.156 0 40.287 16.727 42.175 38.907.198 2.325-.698 4.61-2.423 6.181l-40.983 37.324c-1.393 1.269-3.198 1.955-5.05 1.955z" fill="#e2dff4"/><path d="m177.895 220.634c-13.206-11.587-30.488-18.634-49.395-18.634-41.355 0-75 33.645-75 75v10c51.89 0 97.496-26.355 124.395-66.366z" fill="#f9f9f9"/><g><g><path d="m177.895 220.634c-13.206-11.587-30.488-18.634-49.395-18.634v64.882c19.77-11.47 36.676-27.329 49.395-46.248z" fill="#e2dff4"/></g></g></g></g></svg>