<?xml version="1.0" encoding="utf-8"?>
<svg width="240" height="74" viewBox="0 0 240 74" fill="none" xmlns="http://www.w3.org/2000/svg">
  <path fill-rule="evenodd" clip-rule="evenodd" d="M105.488 22.7864C103.168 22.7864 100.414 23.2783 97.4059 26.7662V17.0051C97.4059 14.5392 95.4046 12.5333 92.9443 12.5333C90.484 12.5333 88.4827 14.5392 88.4827 17.0051V48.8375C88.4827 51.3033 90.484 53.3092 92.9443 53.3092C95.4046 53.3092 97.4059 51.3033 97.4059 48.8375V36.4827C97.4059 32.9309 99.0886 30.9697 102.154 30.9697C105.156 30.9697 106.737 32.8734 106.737 36.4827V48.8375C106.737 51.3033 108.738 53.3092 111.199 53.3092C113.659 53.3092 115.66 51.3033 115.66 48.8375V33.8891C115.654 26.9387 111.855 22.7864 105.488 22.7864ZM131.111 23.0037C127.478 23.0037 124.597 23.4764 121.773 24.5369C120.307 25.0863 119.326 26.5044 119.326 28.0632C119.326 30.1457 120.977 31.7747 123.086 31.7747C123.52 31.7747 123.883 31.7108 124.38 31.5447C126.095 31.0081 127.905 30.7526 129.925 30.7526C134.718 30.7526 135.738 33.4037 135.751 35.646C134.087 35.103 131.99 34.6047 129.065 34.6047C121.442 34.6047 117.069 38.099 117.069 44.1998V44.3084C117.069 49.8214 121.2 53.5266 127.344 53.5266C130.805 53.5266 133.578 52.4725 135.789 50.3133C136.165 51.8912 137.676 53.3157 139.996 53.3157C142.437 53.3157 144.349 51.4248 144.349 49.0101V35.8312C144.349 31.6853 143.266 28.4912 141.118 26.3447C138.9 24.128 135.534 23.0037 131.111 23.0037ZM129.817 47.1192C127.287 47.1192 125.719 45.9182 125.719 43.9826V43.874C125.719 41.5678 127.644 40.2519 131.003 40.2519C132.723 40.2519 134.438 40.5904 135.859 41.2037V42.4238C135.859 45.1836 133.374 47.1192 129.817 47.1192ZM156.306 26.8433C158.613 24.1155 161.456 22.7867 164.974 22.7867C171.686 22.7867 178.474 28.0442 178.474 38.0993V38.2079C178.474 42.8393 177.053 46.7617 174.369 49.5597C171.915 52.1214 168.582 53.5268 164.974 53.5268C161.501 53.5268 158.741 52.3386 156.351 49.8089V57.4747C156.351 59.9405 154.349 61.9464 151.889 61.9464C149.429 61.9464 147.427 59.9405 147.427 57.4747V27.4757C147.427 25.0098 149.429 23.0039 151.889 23.0039C154.139 23.0039 156 24.6777 156.306 26.8433ZM169.557 38.0993C169.557 33.7617 166.683 30.4845 162.871 30.4845C159.034 30.4845 156.242 33.685 156.242 38.0993V38.2079C156.242 42.6221 159.028 45.8226 162.871 45.8226C166.746 45.8226 169.557 42.6221 169.557 38.2079V38.0993ZM198.08 22.7867C194.561 22.7867 191.719 24.1155 189.411 26.8433C189.105 24.6777 187.244 23.0039 184.994 23.0039C182.534 23.0039 180.533 25.0098 180.533 27.4757V57.4747C180.533 59.9405 182.534 61.9464 184.994 61.9464C187.455 61.9464 189.456 59.9405 189.456 57.4747V49.8089C191.846 52.3386 194.606 53.5268 198.08 53.5268C201.687 53.5268 205.021 52.1214 207.475 49.5597C210.158 46.7617 211.579 42.8393 211.579 38.2079V38.0993C211.579 28.0442 204.791 22.7867 198.08 22.7867ZM195.976 30.4845C199.788 30.4845 202.662 33.7617 202.662 38.0993V38.2079C202.662 42.6221 199.852 45.8226 195.976 45.8226C192.133 45.8226 189.348 42.6221 189.348 38.2079V38.0993C189.348 33.685 192.139 30.4845 195.976 30.4845ZM231.485 26.3768C232.313 24.1664 233.792 23.0038 235.761 23.0038C238.139 23.0038 240.006 24.8244 240 27.137C240 27.8077 239.783 28.7787 239.592 29.2259L229.528 53.45C226.998 59.589 224.359 61.7674 219.445 61.7674C217.711 61.7674 216.379 61.5374 214.849 60.9881C213.797 60.6048 212.026 59.6082 212.026 57.2446C212.026 54.9193 213.855 53.533 215.62 53.533C216.321 53.533 216.742 53.6544 217.08 53.7694C217.775 53.9866 218.157 54.076 218.686 54.076C220.025 54.076 220.586 53.8588 221.261 52.562L221.465 52.0765L211.675 29.3409C211.452 28.7787 211.216 27.9099 211.216 27.303C211.216 24.85 213.109 22.9974 215.62 22.9974C217.692 22.9974 219.094 24.0834 219.897 26.3193L225.793 42.2067L231.485 26.3768Z" fill="white"/>
  <path d="M49.4148 27.2298H38.2166V21.6036C38.2166 18.4977 40.7248 15.9774 43.8157 15.9774C46.9066 15.9774 49.4148 18.4977 49.4148 21.6036V27.2298Z" fill="white"/>
  <g transform="matrix(0.141303, 0, 0, 0.136271, 6.399779, -0.128539)" style="">
    <g>
      <path d="m298.81 384.48h-85.62c-61.98 7.37-107.19 30.33-107.19 57.52 0 33.14 67.16 60 150 60s150-26.86 150-60c0-27.19-45.21-50.15-107.19-57.52z" fill="#8bf2cf"/>
      <path d="m412 166c0 69.22-15.09 88.82-59.88 147.03-44.845 58.28-57.134 76.214-96.12 133.79-5.365-7.707-32.132-50.626-96.14-133.81-44.78-58.16-59.86-77.75-59.86-147.01 0-86.02 69.98-156 156-156s156 69.98 156 156z" fill="#ffa2c3"/>
      <path d="m286 136c14.54 0 30 15.18 30 30 0 15.84-14.45 32.67-60 60-45.31-27.19-60-44.06-60-60 0-14.9 15.54-30 30-30 12.85 0 23.83 7.07 30 22.5 6.09-15.23 17.04-22.5 30-22.5z" fill="#eefaff"/>
    </g>
    <g>
      <path d="m286 126c-11.884 0-22.257 4.756-30 13.448-7.743-8.692-18.116-13.448-30-13.448-20.187 0-40 19.813-40 40 0 21.341 18.184 40.568 64.854 68.575 1.583.95 3.364 1.425 5.146 1.425 1.781 0 3.562-.475 5.145-1.425 46.671-28.003 64.855-47.23 64.855-68.575 0-20.187-19.813-40-40-40zm-30 88.302c-34.527-21.22-50-36.208-50-48.302 0-9.159 10.841-20 20-20 9.444 0 16.413 5.455 20.715 16.213 1.518 3.797 5.196 6.287 9.285 6.287s7.767-2.49 9.285-6.287c4.302-10.758 11.271-16.213 20.715-16.213 9.159 0 20 10.841 20 20 0 12.097-15.474 27.085-50 48.302z"/>
      <circle cx="366" cy="56" r="10"/>
      <path d="m152.09 319.31c11.926 15.498 26.326 34.218 43.336 57.622-60.95 10.319-99.426 35.108-99.426 65.068 0 53.393 105.563 70 160 70 54.063 0 160-16.491 160-70 0-29.961-38.478-54.75-99.429-65.069 16.919-23.287 31.269-41.941 43.155-57.387l.342-.445c45.068-58.572 61.932-80.488 61.932-153.099 0-27.541-6.917-54.841-20.002-78.95-2.634-4.854-8.705-6.652-13.559-4.018s-6.653 8.705-4.019 13.559c11.501 21.189 17.58 45.19 17.58 69.409 0 65.807-13.396 83.217-57.805 140.931l-.32.416c-32.847 42.685-57.341 75.911-87.874 121.453-32.191-48.038-57.917-82.512-88.06-121.686l-.158-.205c-44.387-57.65-57.783-75.049-57.783-140.909 0-80.505 65.495-146 146-146 24.219 0 48.22 6.079 69.409 17.58 4.854 2.634 10.925.835 13.559-4.019 2.635-4.854.836-10.925-4.018-13.559-24.109-13.085-51.409-20.002-78.95-20.002-91.533 0-166 74.467-166 166 0 72.668 16.865 94.572 61.935 153.108zm95.588 133.055c1.854 2.783 4.978 4.455 8.322 4.455s6.468-1.672 8.322-4.455c3.022-4.479 18.075-27.477 39.157-57.205 60.141 8.244 92.521 29.98 92.521 46.84 0 36.301-98.908 50-140 50-55.163 0-140-17.846-140-50 0-16.861 32.373-38.596 92.514-46.84 21.206 29.877 35.666 52.021 39.164 57.205z"/>
    </g>
  </g>
</svg>