<svg id="Capa_1" enable-background="new 0 0 512 512" height="512" viewBox="0 0 512 512" width="512" xmlns="http://www.w3.org/2000/svg"><g><path d="m121 421h-45v91h45 45v-91z" fill="#5bb7e6"/><path d="m121 421h45v91h-45z" fill="#2e8ae6"/><path d="m196 240v-120h-15c-21.654 0-41.843 5.601-60 14.702-44.258 22.181-75 67.509-75 120.298v196h75 75v-121l-30-30v-30z" fill="#8ad7e6"/><path d="m196 330-30-30v-30l30-30v-120h-15c-21.654 0-41.843 5.601-60 14.702v316.298h75z" fill="#5bb7e6"/><path d="m361 240h-75v272h75 75v-272z" fill="#4a696f"/><path d="m361 240h75v272h-75z" fill="#384949"/><path d="m406 120h-45-60c-41.353 0-75 33.647-75 75v75h60l30 60c15.78 0 30.703-3.12 45-7.659 60.639-19.25 105-75.416 105-142.341 0-33.091-26.909-60-60-60z" fill="#ff6c6c"/><path d="m466 180c0-33.091-26.909-60-60-60h-45v202.341c60.639-19.25 105-75.416 105-142.341z" fill="#e63950"/><g><path d="m226 180c-33.091 0-60-26.909-60-60s26.909-60 60-60 60 26.909 60 60-26.909 60-60 60z" fill="#ffd5cc"/></g><path d="m316 270-30 30v-90h30z" fill="#e63950"/><path d="m196 270v-30h-60v45c0 24.853 20.147 45 45 45h105v-60z" fill="#ffd5cc"/><path d="m361 360h-15v152h15 15v-152z" fill="#384949"/><path d="m361 360h15v152h-15z" fill="#293939"/><circle cx="361" cy="60" fill="#ffbfab" r="60"/><path d="m421 60c0-33.091-26.909-60-60-60v120c33.091 0 60-26.909 60-60z" fill="#f89580"/><path d="m316 330h-30c-16.569 0-30-13.431-30-30 0-16.569 13.431-30 30-30h30z" fill="#ffbfab"/></g></svg>